<svg width="78" height="48" viewBox="0 0 78 48" fill="none" xmlns="http://www.w3.org/2000/svg">
<rect width="78" height="48" fill="#1E1E1E"/>
<g id="lua" clip-path="url(#clip0_0_1)">
<rect width="1920" height="9151" transform="translate(-357 -24)" fill="#0C1114"/>
<g id="Group 5258">
</g>
<g id="Frame 2" clip-path="url(#clip1_0_1)" filter="url(#filter0_d_0_1)">
<rect width="1920" height="96" transform="translate(-357 -24)" fill="#0C1114" fill-opacity="0.5"/>
<g id="logo_w">
<path d="M1.41955 8.59462L15.3256 43.4771C17.3088 48.452 24.3214 48.5333 26.4195 43.6057L28.2157 39.387C28.8342 37.9342 28.8552 36.2963 28.2741 34.8282L16.8849 6.05596C16.3029 4.58568 15.164 3.40459 13.7159 2.76949L9.4028 0.87795C4.48822 -1.27739 -0.567706 3.60971 1.41955 8.59462Z" fill="url(#paint0_linear_0_1)"/>
<path d="M34.6997 20.7724L33.4026 17.4678C32.3458 14.7754 35.0743 12.1506 37.7238 13.3107C38.5386 13.6675 39.4707 13.6714 40.2905 13.3262C43.0473 12.1655 45.8684 14.9026 44.738 17.6719L43.4481 20.8316C41.8411 24.7683 36.2533 24.7305 34.6997 20.7724Z" fill="url(#paint1_linear_0_1)"/>
<path d="M68.5972 0.877949L64.2841 2.76949C62.836 3.40459 61.6971 4.58568 61.1151 6.05597L49.7259 34.8282C49.1448 36.2963 49.1658 37.9342 49.7843 39.387L51.5805 43.6057C53.6786 48.5333 60.6912 48.452 62.6744 43.4771L76.5805 8.59463C78.5677 3.60972 73.5118 -1.27739 68.5972 0.877949Z" fill="url(#paint2_linear_0_1)"/>
</g>
</g>
</g>
<defs>
<filter id="filter0_d_0_1" x="-498" y="-161" width="2202" height="378" filterUnits="userSpaceOnUse" color-interpolation-filters="sRGB">
<feFlood flood-opacity="0" result="BackgroundImageFix"/>
<feColorMatrix in="SourceAlpha" type="matrix" values="0 0 0 0 0 0 0 0 0 0 0 0 0 0 0 0 0 0 127 0" result="hardAlpha"/>
<feOffset dy="4"/>
<feGaussianBlur stdDeviation="70.5"/>
<feComposite in2="hardAlpha" operator="out"/>
<feColorMatrix type="matrix" values="0 0 0 0 0 0 0 0 0 0 0 0 0 0 0 0 0 0 1 0"/>
<feBlend mode="normal" in2="BackgroundImageFix" result="effect1_dropShadow_0_1"/>
<feBlend mode="normal" in="SourceGraphic" in2="effect1_dropShadow_0_1" result="shape"/>
</filter>
<linearGradient id="paint0_linear_0_1" x1="39" y1="-5" x2="39" y2="57" gradientUnits="userSpaceOnUse">
<stop stop-color="white"/>
<stop offset="1" stop-color="#D9D9D9" stop-opacity="0"/>
</linearGradient>
<linearGradient id="paint1_linear_0_1" x1="39" y1="-5" x2="39" y2="57" gradientUnits="userSpaceOnUse">
<stop stop-color="white"/>
<stop offset="1" stop-color="#D9D9D9" stop-opacity="0"/>
</linearGradient>
<linearGradient id="paint2_linear_0_1" x1="39" y1="-5" x2="39" y2="57" gradientUnits="userSpaceOnUse">
<stop stop-color="white"/>
<stop offset="1" stop-color="#D9D9D9" stop-opacity="0"/>
</linearGradient>
<clipPath id="clip0_0_1">
<rect width="1920" height="9151" fill="white" transform="translate(-357 -24)"/>
</clipPath>
<clipPath id="clip1_0_1">
<rect width="1920" height="96" fill="white" transform="translate(-357 -24)"/>
</clipPath>
</defs>
</svg>
